<svg width="27" height="27" viewBox="0 0 27 27" fill="none" xmlns="http://www.w3.org/2000/svg">
<path opacity="0.2" d="M25.9851 16.645C24.2488 23.6094 17.1947 27.8474 10.2295 26.1111C3.26761 24.3747 -0.970792 17.3206 0.765927 10.3567C2.50143 3.39152 9.55515 -0.847289 16.5183 0.889023C23.483 2.62534 27.721 9.68027 25.9847 16.645H25.9851Z" fill="#F7931A"/>
<path fill-rule="evenodd" clip-rule="evenodd" d="M17.2903 11.9897C17.4655 10.8162 16.5721 10.1854 15.3504 9.76456L15.7467 8.17493L14.7788 7.93379L14.3929 9.48152C14.1388 9.41814 13.8776 9.35833 13.618 9.29908L14.0066 7.74114L13.0395 7.5L12.6429 9.08908C12.4324 9.04112 12.2257 8.99372 12.025 8.94384L12.0261 8.93888L10.6917 8.60568L10.4343 9.63916C10.4343 9.63916 11.1522 9.80369 11.1371 9.81389C11.529 9.91172 11.6001 10.1711 11.5879 10.3767L11.1365 12.1876C11.1635 12.1945 11.1985 12.2044 11.2371 12.2198L11.1351 12.1945L10.5021 14.7313C10.4542 14.8504 10.3326 15.029 10.0587 14.9612C10.0683 14.9752 9.35536 14.7856 9.35536 14.7856L8.875 15.8935L10.1345 16.2074C10.2766 16.243 10.4171 16.2797 10.556 16.3159C10.646 16.3394 10.7353 16.3627 10.824 16.3854L10.4236 17.9935L11.3901 18.2347L11.7869 16.6439C12.0507 16.7156 12.307 16.7817 12.5578 16.844L12.1626 18.4273L13.1302 18.6685L13.5306 17.0637C15.1806 17.3759 16.4216 17.25 16.9433 15.7579C17.3641 14.5563 16.9226 13.8632 16.0545 13.4109C16.6867 13.2646 17.1629 12.8487 17.29 11.9897H17.2903ZM15.0792 15.0899C14.8045 16.1927 13.0779 15.7364 12.2886 15.5278C12.2179 15.5091 12.1548 15.4924 12.1008 15.479L12.6322 13.3489C12.6981 13.3654 12.7786 13.3835 12.8698 13.4039L12.8699 13.4039C13.6864 13.5872 15.3598 13.9627 15.0795 15.0899H15.0792ZM13.034 12.4155C13.6926 12.5912 15.1281 12.9742 15.3782 11.9723C15.6339 10.9474 14.2379 10.6385 13.5562 10.4876C13.4796 10.4707 13.4119 10.4557 13.3567 10.442L12.875 12.3739C12.9206 12.3852 12.9741 12.3995 13.034 12.4155Z" fill="#F7931A"/>
</svg>
