<svg width="16" height="16" viewBox="0 0 16 16" fill="none" xmlns="http://www.w3.org/2000/svg">
<path d="M12.844 4.375H10.6342V3.625C10.6342 2.82935 10.3238 2.06629 9.77122 1.50368C9.21866 0.941071 8.46922 0.625 7.68778 0.625C6.90634 0.625 6.1569 0.941071 5.60434 1.50368C5.05178 2.06629 4.74135 2.82935 4.74135 3.625V4.375H2.53153C2.33617 4.375 2.14881 4.45402 2.01067 4.59467C1.87253 4.73532 1.79492 4.92609 1.79492 5.125V13.375C1.79492 13.9717 2.02774 14.544 2.44216 14.966C2.85659 15.3879 3.41866 15.625 4.00474 15.625H11.3708C11.9569 15.625 12.519 15.3879 12.9334 14.966C13.3478 14.544 13.5806 13.9717 13.5806 13.375V5.125C13.5806 4.92609 13.503 4.73532 13.3649 4.59467C13.2267 4.45402 13.0394 4.375 12.844 4.375ZM6.21456 3.625C6.21456 3.22718 6.36978 2.84564 6.64606 2.56434C6.92234 2.28304 7.29706 2.125 7.68778 2.125C8.0785 2.125 8.45322 2.28304 8.7295 2.56434C9.00578 2.84564 9.16099 3.22718 9.16099 3.625V4.375H6.21456V3.625ZM12.1074 13.375C12.1074 13.5739 12.0298 13.7647 11.8917 13.9053C11.7535 14.046 11.5662 14.125 11.3708 14.125H4.00474C3.80938 14.125 3.62202 14.046 3.48388 13.9053C3.34574 13.7647 3.26814 13.5739 3.26814 13.375V5.875H4.74135V6.625C4.74135 6.82391 4.81896 7.01468 4.9571 7.15533C5.09524 7.29598 5.2826 7.375 5.47796 7.375C5.67332 7.375 5.86068 7.29598 5.99882 7.15533C6.13696 7.01468 6.21456 6.82391 6.21456 6.625V5.875H9.16099V6.625C9.16099 6.82391 9.2386 7.01468 9.37674 7.15533C9.51488 7.29598 9.70224 7.375 9.8976 7.375C10.093 7.375 10.2803 7.29598 10.4185 7.15533C10.5566 7.01468 10.6342 6.82391 10.6342 6.625V5.875H12.1074V13.375Z" fill="#0BF1FF" fill-opacity="0.5"/>
</svg>
