<svg width="17" height="16" viewBox="0 0 17 16" fill="none" xmlns="http://www.w3.org/2000/svg">
<path d="M15.6013 11.1127H4.24377C4.02861 11.1127 3.82227 11.0337 3.67013 10.8933C3.51799 10.7528 3.43252 10.5622 3.43252 10.3635C3.43252 10.1649 3.51799 9.97433 3.67013 9.83384C3.82227 9.69335 4.02861 9.61443 4.24377 9.61443H12.7133C13.2557 9.61446 13.7826 9.44714 14.2103 9.13906C14.638 8.83097 14.942 8.39977 15.074 7.91393L16.4126 3.05215C16.443 2.94158 16.4456 2.82607 16.4203 2.71442C16.395 2.60277 16.3424 2.49793 16.2666 2.4079C16.1877 2.31556 16.0863 2.24167 15.9707 2.19222C15.8552 2.14276 15.7286 2.11913 15.6013 2.12324H4.04907C3.8817 1.68609 3.57199 1.30745 3.16242 1.03922C2.75285 0.770987 2.26345 0.626303 1.76133 0.625H0.998754C0.783596 0.625 0.57725 0.703925 0.425111 0.844412C0.272971 0.984899 0.1875 1.17544 0.1875 1.37412C0.1875 1.5728 0.272971 1.76334 0.425111 1.90383C0.57725 2.04431 0.783596 2.12324 0.998754 2.12324H1.76133C1.94665 2.11825 2.12823 2.17203 2.27583 2.27562C2.42344 2.37921 2.52817 2.52636 2.57259 2.69257L2.62126 3.05215L4.02473 8.11619C3.37926 8.14301 2.77176 8.40551 2.33588 8.84594C1.9 9.28636 1.67144 9.86864 1.70049 10.4647C1.72953 11.0607 2.0138 11.6217 2.49076 12.0242C2.96772 12.4267 3.5983 12.6377 4.24377 12.6109H4.38979C4.25637 12.9504 4.2135 13.3145 4.26481 13.6725C4.31611 14.0305 4.46009 14.3718 4.68454 14.6675C4.90899 14.9632 5.20731 15.2046 5.55423 15.3713C5.90115 15.538 6.28646 15.625 6.67753 15.625C7.0686 15.625 7.45391 15.538 7.80083 15.3713C8.14775 15.2046 8.44607 14.9632 8.67052 14.6675C8.89497 14.3718 9.03895 14.0305 9.09026 13.6725C9.14156 13.3145 9.09869 12.9504 8.96527 12.6109H10.8798C10.7464 12.9504 10.7035 13.3145 10.7548 13.6725C10.8061 14.0305 10.9501 14.3718 11.1746 14.6675C11.399 14.9632 11.6973 15.2046 12.0443 15.3713C12.3912 15.538 12.7765 15.625 13.1676 15.625C13.5586 15.625 13.9439 15.538 14.2909 15.3713C14.6378 15.2046 14.9361 14.9632 15.1606 14.6675C15.385 14.3718 15.529 14.0305 15.5803 13.6725C15.6316 13.3145 15.5887 12.9504 15.4553 12.6109H15.6013C15.8165 12.6109 16.0228 12.532 16.175 12.3915C16.3271 12.251 16.4126 12.0605 16.4126 11.8618C16.4126 11.6631 16.3271 11.4726 16.175 11.3321C16.0228 11.1916 15.8165 11.1127 15.6013 11.1127ZM14.5629 3.62148L13.5002 7.54686C13.4558 7.71307 13.351 7.86022 13.2034 7.96381C13.0558 8.0674 12.8742 8.12117 12.6889 8.11619H5.6878L4.47092 3.62148H14.5629ZM6.67753 14.1091C6.51708 14.1091 6.36023 14.0652 6.22682 13.9829C6.09341 13.9006 5.98943 13.7836 5.92803 13.6467C5.86663 13.5098 5.85056 13.3592 5.88187 13.2139C5.91317 13.0686 5.99043 12.9351 6.10389 12.8303C6.21734 12.7255 6.3619 12.6542 6.51926 12.6253C6.67663 12.5964 6.83975 12.6112 6.98798 12.6679C7.13622 12.7246 7.26292 12.8206 7.35206 12.9438C7.44121 13.067 7.48878 13.2119 7.48878 13.36C7.48878 13.5587 7.40331 13.7492 7.25117 13.8897C7.09903 14.0302 6.89269 14.1091 6.67753 14.1091ZM13.1676 14.1091C13.0071 14.1091 12.8503 14.0652 12.7169 13.9829C12.5834 13.9006 12.4795 13.7836 12.4181 13.6467C12.3567 13.5098 12.3406 13.3592 12.3719 13.2139C12.4032 13.0686 12.4805 12.9351 12.5939 12.8303C12.7074 12.7255 12.8519 12.6542 13.0093 12.6253C13.1667 12.5964 13.3298 12.6112 13.478 12.6679C13.6263 12.7246 13.753 12.8206 13.8421 12.9438C13.9312 13.067 13.9788 13.2119 13.9788 13.36C13.9788 13.5587 13.8933 13.7492 13.7412 13.8897C13.5891 14.0302 13.3827 14.1091 13.1676 14.1091Z" fill="#0BF1FF" fill-opacity="0.5"/>
</svg>
