<svg width="22" height="22" viewBox="0 0 22 22" fill="none" xmlns="http://www.w3.org/2000/svg">
<rect x="0.6875" y="0.625" width="20" height="20" rx="0.5" stroke="#FA4141" stroke-opacity="0.5"/>
<path d="M13.0739 7.44302L10.6874 9.8295L8.30096 7.44302C8.19547 7.33753 8.0524 7.27827 7.90321 7.27827C7.75403 7.27827 7.61096 7.33753 7.50547 7.44302C7.39998 7.54851 7.34071 7.69158 7.34071 7.84077C7.34071 7.98995 7.39998 8.13303 7.50547 8.23851L9.89195 10.625L7.50547 13.0115C7.39998 13.117 7.34071 13.26 7.34071 13.4092C7.34071 13.5584 7.39998 13.7015 7.50547 13.807C7.61096 13.9125 7.75403 13.9717 7.90321 13.9717C8.0524 13.9717 8.19547 13.9125 8.30096 13.807L10.6874 11.4205L13.0739 13.807C13.1794 13.9125 13.3225 13.9717 13.4717 13.9717C13.6209 13.9717 13.7639 13.9125 13.8694 13.807C13.9749 13.7015 14.0342 13.5584 14.0342 13.4092C14.0342 13.26 13.9749 13.117 13.8694 13.0115L11.4829 10.625L13.8694 8.23851C13.9749 8.13303 14.0342 7.98995 14.0342 7.84077C14.0342 7.69158 13.9749 7.54851 13.8694 7.44302C13.7639 7.33753 13.6209 7.27827 13.4717 7.27827C13.3225 7.27827 13.1794 7.33753 13.0739 7.44302Z" fill="#FA4141"/>
</svg>
