<svg width="17" height="17" viewBox="0 0 17 17" fill="none" xmlns="http://www.w3.org/2000/svg">
<path d="M7.90174 4.01566C8.18221 3.97267 8.46557 3.95128 8.74932 3.95169C11.2921 3.95169 13.6829 5.78278 15.0742 8.74932C14.8614 9.20077 14.6211 9.63871 14.3545 10.0607C14.2699 10.1917 14.2255 10.3445 14.2266 10.5005C14.2284 10.675 14.2872 10.8441 14.3941 10.982C14.501 11.12 14.6501 11.2192 14.8186 11.2645C14.9871 11.3098 15.1658 11.2987 15.3275 11.2329C15.4891 11.1672 15.6248 11.0503 15.7139 10.9003C16.0864 10.3149 16.41 9.69977 16.6814 9.06116C16.7243 8.96139 16.7464 8.85392 16.7464 8.74532C16.7464 8.63671 16.7243 8.52925 16.6814 8.42948C15.0662 4.67933 12.0277 2.35248 8.74932 2.35248C8.37404 2.35059 7.99936 2.38271 7.62987 2.44843C7.52487 2.46628 7.4244 2.50464 7.33422 2.56132C7.24404 2.618 7.16591 2.69188 7.10428 2.77875C7.04265 2.86562 6.99874 2.96378 6.97505 3.06763C6.95135 3.17147 6.94835 3.27897 6.9662 3.38397C6.98405 3.48898 7.02241 3.58944 7.07908 3.67962C7.13576 3.7698 7.20964 3.84794 7.29652 3.90956C7.38339 3.97119 7.48155 4.0151 7.58539 4.0388C7.68924 4.06249 7.79673 4.06549 7.90174 4.04764V4.01566ZM2.1206 0.985157C2.04604 0.910603 1.95753 0.851464 1.86012 0.811115C1.76271 0.770767 1.65831 0.75 1.55288 0.75C1.44744 0.75 1.34304 0.770767 1.24563 0.811115C1.14822 0.851464 1.05971 0.910603 0.985157 0.985157C0.834588 1.13573 0.75 1.33994 0.75 1.55288C0.75 1.76581 0.834588 1.97003 0.985157 2.1206L3.46393 4.59137C2.33295 5.68006 1.43282 6.98538 0.81724 8.42948C0.773211 8.53036 0.750485 8.63925 0.750485 8.74932C0.750485 8.85939 0.773211 8.96828 0.81724 9.06916C2.43244 12.8193 5.47094 15.1462 8.74932 15.1462C10.1863 15.1362 11.5893 14.7084 12.7873 13.9148L15.378 16.5135C15.4524 16.5884 15.5408 16.6479 15.6382 16.6885C15.7357 16.7291 15.8402 16.75 15.9458 16.75C16.0513 16.75 16.1558 16.7291 16.2533 16.6885C16.3507 16.6479 16.4391 16.5884 16.5135 16.5135C16.5884 16.4391 16.6479 16.3507 16.6885 16.2533C16.7291 16.1558 16.75 16.0513 16.75 15.9458C16.75 15.8402 16.7291 15.7357 16.6885 15.6382C16.6479 15.5408 16.5884 15.4524 16.5135 15.378L2.1206 0.985157ZM7.20608 8.33352L9.16511 10.2926C9.02997 10.3313 8.8899 10.3502 8.74932 10.3485C8.32518 10.3485 7.91842 10.18 7.61851 9.88013C7.3186 9.58022 7.15011 9.17345 7.15011 8.74932C7.14847 8.60874 7.16733 8.46867 7.20608 8.33352ZM8.74932 13.5469C6.20657 13.5469 3.81576 11.7159 2.43244 8.74932C2.94906 7.60888 3.68228 6.57965 4.59137 5.71882L6.00667 7.15011C5.67424 7.75685 5.54749 8.45502 5.64546 9.13989C5.74343 9.82476 6.06082 10.4594 6.55003 10.9486C7.03923 11.4378 7.67387 11.7552 8.35875 11.8532C9.04362 11.9511 9.74179 11.8244 10.3485 11.492L11.6199 12.7473C10.7492 13.2598 9.75956 13.5355 8.74932 13.5469Z" fill="#979797" fill-opacity="0.5"/>
</svg>
