<svg width="16" height="16" viewBox="0 0 16 16" fill="none" xmlns="http://www.w3.org/2000/svg">
<path d="M15.6019 13.8604L12.821 11.1C13.9005 9.75307 14.4232 8.04346 14.2818 6.32267C14.1403 4.60189 13.3455 3.00074 12.0606 1.84844C10.7758 0.696149 9.0986 0.0803005 7.37397 0.127529C5.64933 0.174757 4.00832 0.881472 2.78836 2.10236C1.5684 3.32324 0.862219 4.9655 0.815027 6.69145C0.767834 8.4174 1.38322 10.0958 2.53463 11.3817C3.68605 12.6675 5.28599 13.463 7.00547 13.6045C8.72495 13.7461 10.4333 13.2229 11.7792 12.1427L14.5375 14.9031C14.6072 14.9734 14.6901 15.0292 14.7814 15.0673C14.8728 15.1054 14.9707 15.125 15.0697 15.125C15.1686 15.125 15.2666 15.1054 15.358 15.0673C15.4493 15.0292 15.5322 14.9734 15.6019 14.9031C15.737 14.7632 15.8125 14.5763 15.8125 14.3818C15.8125 14.1872 15.737 14.0003 15.6019 13.8604ZM7.57416 12.1427C6.53642 12.1427 5.52199 11.8347 4.65914 11.2577C3.7963 10.6808 3.12379 9.86068 2.72667 8.90121C2.32955 7.94174 2.22564 6.88597 2.42809 5.8674C2.63054 4.84883 3.13026 3.91322 3.86405 3.17887C4.59784 2.44452 5.53274 1.94443 6.55054 1.74182C7.56834 1.53921 8.62331 1.6432 9.58205 2.04062C10.5408 2.43805 11.3602 3.11107 11.9368 3.97457C12.5133 4.83807 12.821 5.85327 12.821 6.89179C12.821 8.28441 12.2682 9.61999 11.2843 10.6047C10.3003 11.5894 8.96572 12.1427 7.57416 12.1427Z" fill="#0BF1FF" fill-opacity="0.5"/>
</svg>
