<svg width="10" height="9" viewBox="0 0 10 9" fill="none" xmlns="http://www.w3.org/2000/svg">
<path d="M9.44003 0.464775C9.36396 0.281602 9.2184 0.13604 9.03522 0.059971C8.9451 0.0215588 8.84832 0.00118442 8.75036 0H1.25398C1.05517 0 0.864495 0.0789796 0.723911 0.219564C0.583326 0.360148 0.504347 0.550821 0.504347 0.749638C0.504347 0.948454 0.583326 1.13913 0.723911 1.27971C0.864495 1.4203 1.05517 1.49928 1.25398 1.49928H6.94374L0.721742 7.71377C0.651479 7.78346 0.595711 7.86637 0.557653 7.95772C0.519594 8.04907 0.5 8.14705 0.5 8.24602C0.5 8.34498 0.519594 8.44296 0.557653 8.53431C0.595711 8.62566 0.651479 8.70857 0.721742 8.77826C0.79143 8.84852 0.874341 8.90429 0.965691 8.94235C1.05704 8.98041 1.15502 9 1.25398 9C1.35295 9 1.45093 8.98041 1.54228 8.94235C1.63363 8.90429 1.71654 8.84852 1.78623 8.77826L8.00072 2.55626V8.24602C8.00072 8.44483 8.0797 8.63551 8.22029 8.77609C8.36087 8.91667 8.55155 8.99565 8.75036 8.99565C8.94918 8.99565 9.13985 8.91667 9.28044 8.77609C9.42102 8.63551 9.5 8.44483 9.5 8.24602V0.749638C9.49882 0.651677 9.47844 0.554899 9.44003 0.464775Z" fill="#0BF1FF" fill-opacity="0.5"/>
</svg>
