<svg width="22" height="22" viewBox="0 0 22 22" fill="none" xmlns="http://www.w3.org/2000/svg">
<rect x="0.75" y="1.25" width="20" height="20" rx="0.5" stroke="#0BF1FF" stroke-opacity="0.5"/>
<path d="M13.1362 8.06802L10.7497 10.4545L8.36322 8.06802C8.25773 7.96253 8.11465 7.90327 7.96547 7.90327C7.81629 7.90327 7.67321 7.96253 7.56772 8.06802C7.46223 8.17351 7.40297 8.31658 7.40297 8.46577C7.40297 8.61495 7.46223 8.75803 7.56772 8.86351L9.95421 11.25L7.56772 13.6365C7.46223 13.742 7.40297 13.885 7.40297 14.0342C7.40297 14.1834 7.46223 14.3265 7.56772 14.432C7.67321 14.5375 7.81629 14.5967 7.96547 14.5967C8.11465 14.5967 8.25773 14.5375 8.36322 14.432L10.7497 12.0455L13.1362 14.432C13.2417 14.5375 13.3848 14.5967 13.5339 14.5967C13.6831 14.5967 13.8262 14.5375 13.9317 14.432C14.0372 14.3265 14.0964 14.1834 14.0964 14.0342C14.0964 13.885 14.0372 13.742 13.9317 13.6365L11.5452 11.25L13.9317 8.86351C14.0372 8.75803 14.0964 8.61495 14.0964 8.46577C14.0964 8.31658 14.0372 8.17351 13.9317 8.06802C13.8262 7.96253 13.6831 7.90327 13.5339 7.90327C13.3848 7.90327 13.2417 7.96253 13.1362 8.06802Z" fill="#0BF1FF"/>
</svg>
