<svg width="15" height="11" viewBox="0 0 15 11" fill="none" xmlns="http://www.w3.org/2000/svg">
<path d="M14.2046 0.93447C14.1116 0.840742 14.001 0.766347 13.8792 0.715579C13.7573 0.66481 13.6266 0.638672 13.4946 0.638672C13.3626 0.638672 13.2319 0.66481 13.11 0.715579C12.9881 0.766347 12.8775 0.840742 12.7846 0.93447L5.33458 8.39447L2.20458 5.25447C2.10806 5.16123 1.99412 5.08792 1.86926 5.03871C1.74441 4.98951 1.61108 4.96538 1.4769 4.9677C1.34272 4.97002 1.21031 4.99875 1.08723 5.05224C0.964154 5.10574 0.852817 5.18295 0.759579 5.27947C0.66634 5.37599 0.593026 5.48993 0.543822 5.61479C0.494618 5.73964 0.470488 5.87297 0.472809 6.00715C0.475131 6.14133 0.503858 6.27374 0.557352 6.39682C0.610845 6.51989 0.688057 6.63123 0.784579 6.72447L4.62458 10.5645C4.71754 10.6582 4.82814 10.7326 4.95 10.7834C5.07186 10.8341 5.20257 10.8603 5.33458 10.8603C5.46659 10.8603 5.5973 10.8341 5.71916 10.7834C5.84101 10.7326 5.95162 10.6582 6.04458 10.5645L14.2046 2.40447C14.3061 2.31083 14.3871 2.19718 14.4425 2.07068C14.4979 1.94418 14.5265 1.80757 14.5265 1.66947C14.5265 1.53137 14.4979 1.39476 14.4425 1.26826C14.3871 1.14176 14.3061 1.02811 14.2046 0.93447Z" fill="#0BF1FF" fill-opacity="0.5"/>
</svg>
